<mxfile host="app.diagrams.net" modified="2024-05-04T09:52:27.648Z" agent="Mozilla/5.0 (Windows NT 10.0; Win64; x64; rv:125.0) Gecko/20100101 Firefox/125.0" etag="njwWl3u4w9Odx6oJ11op" version="24.3.1" type="device">
  <diagram name="Page-1" id="hcJmlhMIp3TnDv_s8BjJ">
    <mxGraphModel dx="1195" dy="622" grid="1" gridSize="10" guides="1" tooltips="1" connect="1" arrows="1" fold="1" page="1" pageScale="1" pageWidth="827" pageHeight="1169" math="0" shadow="0">
      <root>
        <mxCell id="0" />
        <mxCell id="1" parent="0" />
        <mxCell id="G1edyjKX0rfjbLjhpbvt-78" style="edgeStyle=orthogonalEdgeStyle;rounded=0;orthogonalLoop=1;jettySize=auto;html=1;strokeColor=default;align=center;verticalAlign=middle;fontFamily=Helvetica;fontSize=11;fontColor=default;labelBackgroundColor=default;endArrow=block;endFill=0;" edge="1" parent="1" source="G1edyjKX0rfjbLjhpbvt-86" target="G1edyjKX0rfjbLjhpbvt-61">
          <mxGeometry relative="1" as="geometry" />
        </mxCell>
        <mxCell id="G1edyjKX0rfjbLjhpbvt-79" style="edgeStyle=orthogonalEdgeStyle;rounded=0;orthogonalLoop=1;jettySize=auto;html=1;strokeColor=default;align=center;verticalAlign=middle;fontFamily=Helvetica;fontSize=11;fontColor=default;labelBackgroundColor=default;endArrow=block;endFill=0;" edge="1" parent="1" source="G1edyjKX0rfjbLjhpbvt-91" target="G1edyjKX0rfjbLjhpbvt-61">
          <mxGeometry relative="1" as="geometry" />
        </mxCell>
        <mxCell id="G1edyjKX0rfjbLjhpbvt-80" style="edgeStyle=orthogonalEdgeStyle;rounded=0;orthogonalLoop=1;jettySize=auto;html=1;strokeColor=default;align=center;verticalAlign=middle;fontFamily=Helvetica;fontSize=11;fontColor=default;labelBackgroundColor=default;endArrow=block;endFill=0;" edge="1" parent="1" source="G1edyjKX0rfjbLjhpbvt-81" target="G1edyjKX0rfjbLjhpbvt-64">
          <mxGeometry relative="1" as="geometry" />
        </mxCell>
        <mxCell id="G1edyjKX0rfjbLjhpbvt-41" value="&lt;font size=&quot;1&quot;&gt;&lt;span style=&quot;font-weight: normal;&quot;&gt;&lt;i style=&quot;font-size: 11px;&quot;&gt;&amp;lt;&amp;lt;interface&amp;gt;&amp;gt;&lt;/i&gt;&lt;/span&gt;&lt;/font&gt;&lt;br&gt;IModule" style="swimlane;fontStyle=1;align=center;verticalAlign=top;childLayout=stackLayout;horizontal=1;startSize=40;horizontalStack=0;resizeParent=1;resizeParentMax=0;resizeLast=0;collapsible=1;marginBottom=0;whiteSpace=wrap;html=1;fontFamily=Roboto;fontSource=https%3A%2F%2Ffonts.googleapis.com%2Fcss%3Ffamily%3DRoboto;" vertex="1" parent="1">
          <mxGeometry x="30" y="560" width="190" height="188" as="geometry" />
        </mxCell>
        <mxCell id="G1edyjKX0rfjbLjhpbvt-42" value="+ ApplicationAssembly: Assembly" style="text;strokeColor=none;fillColor=none;align=left;verticalAlign=middle;spacingLeft=4;spacingRight=4;overflow=hidden;rotatable=0;points=[[0,0.5],[1,0.5]];portConstraint=eastwest;whiteSpace=wrap;html=1;fontFamily=Roboto;fontSource=https%3A%2F%2Ffonts.googleapis.com%2Fcss%3Ffamily%3DRoboto;spacing=0;" vertex="1" parent="G1edyjKX0rfjbLjhpbvt-41">
          <mxGeometry y="40" width="190" height="20" as="geometry" />
        </mxCell>
        <mxCell id="G1edyjKX0rfjbLjhpbvt-45" value="+ ContractsAssembly: Assembly" style="text;strokeColor=none;fillColor=none;align=left;verticalAlign=middle;spacingLeft=4;spacingRight=4;overflow=hidden;rotatable=0;points=[[0,0.5],[1,0.5]];portConstraint=eastwest;fontFamily=Roboto;fontSource=https%3A%2F%2Ffonts.googleapis.com%2Fcss%3Ffamily%3DRoboto;spacing=0;whiteSpace=wrap;html=1;" vertex="1" parent="G1edyjKX0rfjbLjhpbvt-41">
          <mxGeometry y="60" width="190" height="20" as="geometry" />
        </mxCell>
        <mxCell id="G1edyjKX0rfjbLjhpbvt-43" value="" style="line;strokeWidth=1;fillColor=none;align=left;verticalAlign=middle;spacingTop=0;spacingLeft=3;spacingRight=3;rotatable=0;labelPosition=right;points=[];portConstraint=eastwest;strokeColor=inherit;" vertex="1" parent="G1edyjKX0rfjbLjhpbvt-41">
          <mxGeometry y="80" width="190" height="8" as="geometry" />
        </mxCell>
        <mxCell id="G1edyjKX0rfjbLjhpbvt-46" value="+ ConfigureServices()" style="text;strokeColor=none;fillColor=none;align=left;verticalAlign=middle;spacingLeft=4;spacingRight=4;overflow=hidden;rotatable=0;points=[[0,0.5],[1,0.5]];portConstraint=eastwest;fontFamily=Roboto;fontSource=https%3A%2F%2Ffonts.googleapis.com%2Fcss%3Ffamily%3DRoboto;spacing=0;whiteSpace=wrap;html=1;" vertex="1" parent="G1edyjKX0rfjbLjhpbvt-41">
          <mxGeometry y="88" width="190" height="20" as="geometry" />
        </mxCell>
        <mxCell id="G1edyjKX0rfjbLjhpbvt-47" value="+ RegisterRequestConsumers()" style="text;strokeColor=none;fillColor=none;align=left;verticalAlign=middle;spacingLeft=4;spacingRight=4;overflow=hidden;rotatable=0;points=[[0,0.5],[1,0.5]];portConstraint=eastwest;fontFamily=Roboto;fontSource=https%3A%2F%2Ffonts.googleapis.com%2Fcss%3Ffamily%3DRoboto;spacing=0;whiteSpace=wrap;html=1;" vertex="1" parent="G1edyjKX0rfjbLjhpbvt-41">
          <mxGeometry y="108" width="190" height="20" as="geometry" />
        </mxCell>
        <mxCell id="G1edyjKX0rfjbLjhpbvt-48" value="+ RegisterEventConsumers()" style="text;strokeColor=none;fillColor=none;align=left;verticalAlign=middle;spacingLeft=4;spacingRight=4;overflow=hidden;rotatable=0;points=[[0,0.5],[1,0.5]];portConstraint=eastwest;fontFamily=Roboto;fontSource=https%3A%2F%2Ffonts.googleapis.com%2Fcss%3Ffamily%3DRoboto;spacing=0;whiteSpace=wrap;html=1;" vertex="1" parent="G1edyjKX0rfjbLjhpbvt-41">
          <mxGeometry y="128" width="190" height="20" as="geometry" />
        </mxCell>
        <mxCell id="G1edyjKX0rfjbLjhpbvt-49" value="+ ConfigureEssentialServices()" style="text;strokeColor=none;fillColor=none;align=left;verticalAlign=middle;spacingLeft=4;spacingRight=4;overflow=hidden;rotatable=0;points=[[0,0.5],[1,0.5]];portConstraint=eastwest;fontFamily=Roboto;fontSource=https%3A%2F%2Ffonts.googleapis.com%2Fcss%3Ffamily%3DRoboto;spacing=0;whiteSpace=wrap;html=1;" vertex="1" parent="G1edyjKX0rfjbLjhpbvt-41">
          <mxGeometry y="148" width="190" height="20" as="geometry" />
        </mxCell>
        <mxCell id="G1edyjKX0rfjbLjhpbvt-50" value="+ ConfigureJobs()" style="text;strokeColor=none;fillColor=none;align=left;verticalAlign=middle;spacingLeft=4;spacingRight=4;overflow=hidden;rotatable=0;points=[[0,0.5],[1,0.5]];portConstraint=eastwest;fontFamily=Roboto;fontSource=https%3A%2F%2Ffonts.googleapis.com%2Fcss%3Ffamily%3DRoboto;spacing=0;whiteSpace=wrap;html=1;" vertex="1" parent="G1edyjKX0rfjbLjhpbvt-41">
          <mxGeometry y="168" width="190" height="20" as="geometry" />
        </mxCell>
        <mxCell id="G1edyjKX0rfjbLjhpbvt-77" style="edgeStyle=orthogonalEdgeStyle;rounded=0;orthogonalLoop=1;jettySize=auto;html=1;dashed=1;strokeColor=default;align=center;verticalAlign=middle;fontFamily=Helvetica;fontSize=11;fontColor=default;labelBackgroundColor=default;endArrow=block;endFill=0;" edge="1" parent="1" source="G1edyjKX0rfjbLjhpbvt-51" target="G1edyjKX0rfjbLjhpbvt-41">
          <mxGeometry relative="1" as="geometry" />
        </mxCell>
        <mxCell id="G1edyjKX0rfjbLjhpbvt-51" value="&lt;font size=&quot;1&quot;&gt;&lt;span style=&quot;font-weight: normal;&quot;&gt;&lt;i style=&quot;font-size: 11px;&quot;&gt;&amp;lt;&amp;lt;interface&amp;gt;&amp;gt;&lt;/i&gt;&lt;/span&gt;&lt;/font&gt;&lt;br&gt;IModuleWithEndpoints" style="swimlane;fontStyle=1;align=center;verticalAlign=top;childLayout=stackLayout;horizontal=1;startSize=40;horizontalStack=0;resizeParent=1;resizeParentMax=0;resizeLast=0;collapsible=1;marginBottom=0;whiteSpace=wrap;html=1;fontFamily=Roboto;fontSource=https%3A%2F%2Ffonts.googleapis.com%2Fcss%3Ffamily%3DRoboto;" vertex="1" parent="1">
          <mxGeometry x="30" y="780" width="190" height="68" as="geometry" />
        </mxCell>
        <mxCell id="G1edyjKX0rfjbLjhpbvt-54" value="" style="line;strokeWidth=1;fillColor=none;align=left;verticalAlign=middle;spacingTop=0;spacingLeft=3;spacingRight=3;rotatable=0;labelPosition=right;points=[];portConstraint=eastwest;strokeColor=inherit;" vertex="1" parent="G1edyjKX0rfjbLjhpbvt-51">
          <mxGeometry y="40" width="190" height="8" as="geometry" />
        </mxCell>
        <mxCell id="G1edyjKX0rfjbLjhpbvt-60" value="+ MapEndpoints()" style="text;strokeColor=none;fillColor=none;align=left;verticalAlign=middle;spacingLeft=4;spacingRight=4;overflow=hidden;rotatable=0;points=[[0,0.5],[1,0.5]];portConstraint=eastwest;fontFamily=Roboto;fontSource=https%3A%2F%2Ffonts.googleapis.com%2Fcss%3Ffamily%3DRoboto;spacing=0;whiteSpace=wrap;html=1;" vertex="1" parent="G1edyjKX0rfjbLjhpbvt-51">
          <mxGeometry y="48" width="190" height="20" as="geometry" />
        </mxCell>
        <mxCell id="G1edyjKX0rfjbLjhpbvt-75" style="edgeStyle=orthogonalEdgeStyle;rounded=0;orthogonalLoop=1;jettySize=auto;html=1;strokeColor=default;align=center;verticalAlign=middle;fontFamily=Helvetica;fontSize=11;fontColor=default;labelBackgroundColor=default;endArrow=block;endFill=0;" edge="1" parent="1" source="G1edyjKX0rfjbLjhpbvt-61" target="G1edyjKX0rfjbLjhpbvt-64">
          <mxGeometry relative="1" as="geometry" />
        </mxCell>
        <mxCell id="G1edyjKX0rfjbLjhpbvt-76" style="edgeStyle=orthogonalEdgeStyle;rounded=0;orthogonalLoop=1;jettySize=auto;html=1;endArrow=block;endFill=0;dashed=1;" edge="1" parent="1" source="G1edyjKX0rfjbLjhpbvt-61" target="G1edyjKX0rfjbLjhpbvt-51">
          <mxGeometry relative="1" as="geometry" />
        </mxCell>
        <mxCell id="G1edyjKX0rfjbLjhpbvt-61" value="&lt;font size=&quot;1&quot;&gt;&lt;span style=&quot;font-weight: normal;&quot;&gt;&lt;i style=&quot;font-size: 11px;&quot;&gt;&amp;lt;&amp;lt;abstract&amp;gt;&amp;gt;&lt;/i&gt;&lt;/span&gt;&lt;/font&gt;&lt;br&gt;ModuleWithEndpoints" style="swimlane;fontStyle=1;align=center;verticalAlign=top;childLayout=stackLayout;horizontal=1;startSize=40;horizontalStack=0;resizeParent=1;resizeParentMax=0;resizeLast=0;collapsible=1;marginBottom=0;whiteSpace=wrap;html=1;fontFamily=Roboto;fontSource=https%3A%2F%2Ffonts.googleapis.com%2Fcss%3Ffamily%3DRoboto;" vertex="1" parent="1">
          <mxGeometry x="290" y="780" width="190" height="68" as="geometry" />
        </mxCell>
        <mxCell id="G1edyjKX0rfjbLjhpbvt-62" value="" style="line;strokeWidth=1;fillColor=none;align=left;verticalAlign=middle;spacingTop=0;spacingLeft=3;spacingRight=3;rotatable=0;labelPosition=right;points=[];portConstraint=eastwest;strokeColor=inherit;" vertex="1" parent="G1edyjKX0rfjbLjhpbvt-61">
          <mxGeometry y="40" width="190" height="8" as="geometry" />
        </mxCell>
        <mxCell id="G1edyjKX0rfjbLjhpbvt-63" value="+ MapEndpoints()" style="text;strokeColor=none;fillColor=none;align=left;verticalAlign=middle;spacingLeft=4;spacingRight=4;overflow=hidden;rotatable=0;points=[[0,0.5],[1,0.5]];portConstraint=eastwest;fontFamily=Roboto;fontSource=https%3A%2F%2Ffonts.googleapis.com%2Fcss%3Ffamily%3DRoboto;spacing=0;whiteSpace=wrap;html=1;" vertex="1" parent="G1edyjKX0rfjbLjhpbvt-61">
          <mxGeometry y="48" width="190" height="20" as="geometry" />
        </mxCell>
        <mxCell id="G1edyjKX0rfjbLjhpbvt-74" style="edgeStyle=orthogonalEdgeStyle;rounded=0;orthogonalLoop=1;jettySize=auto;html=1;dashed=1;strokeColor=default;align=center;verticalAlign=middle;fontFamily=Helvetica;fontSize=11;fontColor=default;labelBackgroundColor=default;endArrow=block;endFill=0;" edge="1" parent="1" source="G1edyjKX0rfjbLjhpbvt-64" target="G1edyjKX0rfjbLjhpbvt-41">
          <mxGeometry relative="1" as="geometry" />
        </mxCell>
        <mxCell id="G1edyjKX0rfjbLjhpbvt-64" value="&lt;font size=&quot;1&quot;&gt;&lt;span style=&quot;font-weight: normal;&quot;&gt;&lt;i style=&quot;font-size: 11px;&quot;&gt;&amp;lt;&amp;lt;abstract&amp;gt;&amp;gt;&lt;/i&gt;&lt;/span&gt;&lt;/font&gt;&lt;br&gt;Module" style="swimlane;fontStyle=1;align=center;verticalAlign=top;childLayout=stackLayout;horizontal=1;startSize=40;horizontalStack=0;resizeParent=1;resizeParentMax=0;resizeLast=0;collapsible=1;marginBottom=0;whiteSpace=wrap;html=1;fontFamily=Roboto;fontSource=https%3A%2F%2Ffonts.googleapis.com%2Fcss%3Ffamily%3DRoboto;" vertex="1" parent="1">
          <mxGeometry x="290" y="580" width="190" height="148" as="geometry" />
        </mxCell>
        <mxCell id="G1edyjKX0rfjbLjhpbvt-67" value="" style="line;strokeWidth=1;fillColor=none;align=left;verticalAlign=middle;spacingTop=0;spacingLeft=3;spacingRight=3;rotatable=0;labelPosition=right;points=[];portConstraint=eastwest;strokeColor=inherit;" vertex="1" parent="G1edyjKX0rfjbLjhpbvt-64">
          <mxGeometry y="40" width="190" height="8" as="geometry" />
        </mxCell>
        <mxCell id="G1edyjKX0rfjbLjhpbvt-68" value="+&lt;i&gt; ConfigureServices()&lt;/i&gt;" style="text;strokeColor=none;fillColor=none;align=left;verticalAlign=middle;spacingLeft=4;spacingRight=0;overflow=hidden;rotatable=0;points=[[0,0.5],[1,0.5]];portConstraint=eastwest;fontFamily=Roboto;fontSource=https%3A%2F%2Ffonts.googleapis.com%2Fcss%3Ffamily%3DRoboto;spacing=0;whiteSpace=wrap;html=1;" vertex="1" parent="G1edyjKX0rfjbLjhpbvt-64">
          <mxGeometry y="48" width="190" height="20" as="geometry" />
        </mxCell>
        <mxCell id="G1edyjKX0rfjbLjhpbvt-69" value="+ RegisterRequestConsumers()" style="text;strokeColor=none;fillColor=none;align=left;verticalAlign=middle;spacingLeft=4;spacingRight=4;overflow=hidden;rotatable=0;points=[[0,0.5],[1,0.5]];portConstraint=eastwest;fontFamily=Roboto;fontSource=https%3A%2F%2Ffonts.googleapis.com%2Fcss%3Ffamily%3DRoboto;spacing=0;whiteSpace=wrap;html=1;" vertex="1" parent="G1edyjKX0rfjbLjhpbvt-64">
          <mxGeometry y="68" width="190" height="20" as="geometry" />
        </mxCell>
        <mxCell id="G1edyjKX0rfjbLjhpbvt-70" value="+ RegisterEventConsumers()" style="text;strokeColor=none;fillColor=none;align=left;verticalAlign=middle;spacingLeft=4;spacingRight=4;overflow=hidden;rotatable=0;points=[[0,0.5],[1,0.5]];portConstraint=eastwest;fontFamily=Roboto;fontSource=https%3A%2F%2Ffonts.googleapis.com%2Fcss%3Ffamily%3DRoboto;spacing=0;whiteSpace=wrap;html=1;" vertex="1" parent="G1edyjKX0rfjbLjhpbvt-64">
          <mxGeometry y="88" width="190" height="20" as="geometry" />
        </mxCell>
        <mxCell id="G1edyjKX0rfjbLjhpbvt-71" value="+ ConfigureEssentialServices()" style="text;strokeColor=none;fillColor=none;align=left;verticalAlign=middle;spacingLeft=4;spacingRight=4;overflow=hidden;rotatable=0;points=[[0,0.5],[1,0.5]];portConstraint=eastwest;fontFamily=Roboto;fontSource=https%3A%2F%2Ffonts.googleapis.com%2Fcss%3Ffamily%3DRoboto;spacing=0;whiteSpace=wrap;html=1;" vertex="1" parent="G1edyjKX0rfjbLjhpbvt-64">
          <mxGeometry y="108" width="190" height="20" as="geometry" />
        </mxCell>
        <mxCell id="G1edyjKX0rfjbLjhpbvt-72" value="+ ConfigureJobs()" style="text;strokeColor=none;fillColor=none;align=left;verticalAlign=middle;spacingLeft=4;spacingRight=4;overflow=hidden;rotatable=0;points=[[0,0.5],[1,0.5]];portConstraint=eastwest;fontFamily=Roboto;fontSource=https%3A%2F%2Ffonts.googleapis.com%2Fcss%3Ffamily%3DRoboto;spacing=0;whiteSpace=wrap;html=1;" vertex="1" parent="G1edyjKX0rfjbLjhpbvt-64">
          <mxGeometry y="128" width="190" height="20" as="geometry" />
        </mxCell>
        <mxCell id="G1edyjKX0rfjbLjhpbvt-81" value="&lt;font style=&quot;font-size: 12px;&quot;&gt;NotificationsModule&lt;/font&gt;" style="swimlane;fontStyle=1;align=center;verticalAlign=middle;childLayout=stackLayout;horizontal=1;startSize=30;horizontalStack=0;resizeParent=1;resizeParentMax=0;resizeLast=0;collapsible=1;marginBottom=0;whiteSpace=wrap;html=1;fontFamily=Roboto;fontSource=https%3A%2F%2Ffonts.googleapis.com%2Fcss%3Ffamily%3DRoboto;" vertex="1" parent="1">
          <mxGeometry x="556" y="605" width="194" height="98" as="geometry" />
        </mxCell>
        <mxCell id="G1edyjKX0rfjbLjhpbvt-84" value="+ ApplicationAssembly: Assembly" style="text;strokeColor=none;fillColor=none;align=left;verticalAlign=middle;spacingLeft=4;spacingRight=4;overflow=hidden;rotatable=0;points=[[0,0.5],[1,0.5]];portConstraint=eastwest;whiteSpace=wrap;html=1;fontFamily=Roboto;fontSource=https%3A%2F%2Ffonts.googleapis.com%2Fcss%3Ffamily%3DRoboto;spacing=0;" vertex="1" parent="G1edyjKX0rfjbLjhpbvt-81">
          <mxGeometry y="30" width="194" height="20" as="geometry" />
        </mxCell>
        <mxCell id="G1edyjKX0rfjbLjhpbvt-85" value="+ ContractsAssembly: Assembly" style="text;strokeColor=none;fillColor=none;align=left;verticalAlign=middle;spacingLeft=4;spacingRight=4;overflow=hidden;rotatable=0;points=[[0,0.5],[1,0.5]];portConstraint=eastwest;fontFamily=Roboto;fontSource=https%3A%2F%2Ffonts.googleapis.com%2Fcss%3Ffamily%3DRoboto;spacing=0;whiteSpace=wrap;html=1;" vertex="1" parent="G1edyjKX0rfjbLjhpbvt-81">
          <mxGeometry y="50" width="194" height="20" as="geometry" />
        </mxCell>
        <mxCell id="G1edyjKX0rfjbLjhpbvt-82" value="" style="line;strokeWidth=1;fillColor=none;align=left;verticalAlign=middle;spacingTop=0;spacingLeft=3;spacingRight=3;rotatable=0;labelPosition=right;points=[];portConstraint=eastwest;strokeColor=inherit;" vertex="1" parent="G1edyjKX0rfjbLjhpbvt-81">
          <mxGeometry y="70" width="194" height="8" as="geometry" />
        </mxCell>
        <mxCell id="G1edyjKX0rfjbLjhpbvt-83" value="+ ConfigureServices()" style="text;strokeColor=none;fillColor=none;align=left;verticalAlign=middle;spacingLeft=4;spacingRight=4;overflow=hidden;rotatable=0;points=[[0,0.5],[1,0.5]];portConstraint=eastwest;fontFamily=Roboto;fontSource=https%3A%2F%2Ffonts.googleapis.com%2Fcss%3Ffamily%3DRoboto;spacing=0;whiteSpace=wrap;html=1;" vertex="1" parent="G1edyjKX0rfjbLjhpbvt-81">
          <mxGeometry y="78" width="194" height="20" as="geometry" />
        </mxCell>
        <mxCell id="G1edyjKX0rfjbLjhpbvt-86" value="UserAccessModule" style="swimlane;fontStyle=1;align=center;verticalAlign=middle;childLayout=stackLayout;horizontal=1;startSize=30;horizontalStack=0;resizeParent=1;resizeParentMax=0;resizeLast=0;collapsible=1;marginBottom=0;whiteSpace=wrap;html=1;fontFamily=Roboto;fontSource=https%3A%2F%2Ffonts.googleapis.com%2Fcss%3Ffamily%3DRoboto;" vertex="1" parent="1">
          <mxGeometry x="556" y="715" width="194" height="98" as="geometry" />
        </mxCell>
        <mxCell id="G1edyjKX0rfjbLjhpbvt-87" value="+ ApplicationAssembly: Assembly" style="text;strokeColor=none;fillColor=none;align=left;verticalAlign=middle;spacingLeft=4;spacingRight=4;overflow=hidden;rotatable=0;points=[[0,0.5],[1,0.5]];portConstraint=eastwest;whiteSpace=wrap;html=1;fontFamily=Roboto;fontSource=https%3A%2F%2Ffonts.googleapis.com%2Fcss%3Ffamily%3DRoboto;spacing=0;" vertex="1" parent="G1edyjKX0rfjbLjhpbvt-86">
          <mxGeometry y="30" width="194" height="20" as="geometry" />
        </mxCell>
        <mxCell id="G1edyjKX0rfjbLjhpbvt-88" value="+ ContractsAssembly: Assembly" style="text;strokeColor=none;fillColor=none;align=left;verticalAlign=middle;spacingLeft=4;spacingRight=4;overflow=hidden;rotatable=0;points=[[0,0.5],[1,0.5]];portConstraint=eastwest;fontFamily=Roboto;fontSource=https%3A%2F%2Ffonts.googleapis.com%2Fcss%3Ffamily%3DRoboto;spacing=0;whiteSpace=wrap;html=1;" vertex="1" parent="G1edyjKX0rfjbLjhpbvt-86">
          <mxGeometry y="50" width="194" height="20" as="geometry" />
        </mxCell>
        <mxCell id="G1edyjKX0rfjbLjhpbvt-89" value="" style="line;strokeWidth=1;fillColor=none;align=left;verticalAlign=middle;spacingTop=0;spacingLeft=3;spacingRight=3;rotatable=0;labelPosition=right;points=[];portConstraint=eastwest;strokeColor=inherit;" vertex="1" parent="G1edyjKX0rfjbLjhpbvt-86">
          <mxGeometry y="70" width="194" height="8" as="geometry" />
        </mxCell>
        <mxCell id="G1edyjKX0rfjbLjhpbvt-90" value="+ ConfigureServices()" style="text;strokeColor=none;fillColor=none;align=left;verticalAlign=middle;spacingLeft=4;spacingRight=4;overflow=hidden;rotatable=0;points=[[0,0.5],[1,0.5]];portConstraint=eastwest;fontFamily=Roboto;fontSource=https%3A%2F%2Ffonts.googleapis.com%2Fcss%3Ffamily%3DRoboto;spacing=0;whiteSpace=wrap;html=1;" vertex="1" parent="G1edyjKX0rfjbLjhpbvt-86">
          <mxGeometry y="78" width="194" height="20" as="geometry" />
        </mxCell>
        <mxCell id="G1edyjKX0rfjbLjhpbvt-91" value="TeamManagementModule" style="swimlane;fontStyle=1;align=center;verticalAlign=middle;childLayout=stackLayout;horizontal=1;startSize=30;horizontalStack=0;resizeParent=1;resizeParentMax=0;resizeLast=0;collapsible=1;marginBottom=0;whiteSpace=wrap;html=1;fontFamily=Roboto;fontSource=https%3A%2F%2Ffonts.googleapis.com%2Fcss%3Ffamily%3DRoboto;" vertex="1" parent="1">
          <mxGeometry x="556" y="820" width="194" height="98" as="geometry" />
        </mxCell>
        <mxCell id="G1edyjKX0rfjbLjhpbvt-92" value="+ ApplicationAssembly: Assembly" style="text;strokeColor=none;fillColor=none;align=left;verticalAlign=middle;spacingLeft=4;spacingRight=4;overflow=hidden;rotatable=0;points=[[0,0.5],[1,0.5]];portConstraint=eastwest;whiteSpace=wrap;html=1;fontFamily=Roboto;fontSource=https%3A%2F%2Ffonts.googleapis.com%2Fcss%3Ffamily%3DRoboto;spacing=0;" vertex="1" parent="G1edyjKX0rfjbLjhpbvt-91">
          <mxGeometry y="30" width="194" height="20" as="geometry" />
        </mxCell>
        <mxCell id="G1edyjKX0rfjbLjhpbvt-93" value="+ ContractsAssembly: Assembly" style="text;strokeColor=none;fillColor=none;align=left;verticalAlign=middle;spacingLeft=4;spacingRight=4;overflow=hidden;rotatable=0;points=[[0,0.5],[1,0.5]];portConstraint=eastwest;fontFamily=Roboto;fontSource=https%3A%2F%2Ffonts.googleapis.com%2Fcss%3Ffamily%3DRoboto;spacing=0;whiteSpace=wrap;html=1;" vertex="1" parent="G1edyjKX0rfjbLjhpbvt-91">
          <mxGeometry y="50" width="194" height="20" as="geometry" />
        </mxCell>
        <mxCell id="G1edyjKX0rfjbLjhpbvt-94" value="" style="line;strokeWidth=1;fillColor=none;align=left;verticalAlign=middle;spacingTop=0;spacingLeft=3;spacingRight=3;rotatable=0;labelPosition=right;points=[];portConstraint=eastwest;strokeColor=inherit;" vertex="1" parent="G1edyjKX0rfjbLjhpbvt-91">
          <mxGeometry y="70" width="194" height="8" as="geometry" />
        </mxCell>
        <mxCell id="G1edyjKX0rfjbLjhpbvt-95" value="+ ConfigureServices()" style="text;strokeColor=none;fillColor=none;align=left;verticalAlign=middle;spacingLeft=4;spacingRight=4;overflow=hidden;rotatable=0;points=[[0,0.5],[1,0.5]];portConstraint=eastwest;fontFamily=Roboto;fontSource=https%3A%2F%2Ffonts.googleapis.com%2Fcss%3Ffamily%3DRoboto;spacing=0;whiteSpace=wrap;html=1;" vertex="1" parent="G1edyjKX0rfjbLjhpbvt-91">
          <mxGeometry y="78" width="194" height="20" as="geometry" />
        </mxCell>
      </root>
    </mxGraphModel>
  </diagram>
</mxfile>
